<svg width="86" height="26" viewBox="0 0 86 26" fill="none" xmlns="http://www.w3.org/2000/svg">
<path fill-rule="evenodd" clip-rule="evenodd" d="M0.0100021 20.3095C0.0100021 23.5725 2.94593 25.9957 6.6653 25.9957C10.0914 25.9957 13.3206 23.993 13.3206 20.5035C13.3206 17.4019 10.8082 15.1727 8.49269 12.9425C6.50425 11.0038 4.61026 9.03257 4.61026 6.48042C4.61026 4.02477 5.65419 3.41135 6.73093 3.41135C7.93791 3.41135 8.8516 4.25123 8.8516 6.70689C8.8516 7.2888 8.81879 7.93472 8.78598 8.41915H13.1605C13.1605 5.31758 10.4523 2.95842 6.92877 2.95842C3.66674 2.95842 0.50214 4.79967 0.50214 8.1277C0.50214 11.4882 2.94891 13.7174 5.26545 15.8826C7.3205 17.8213 9.24232 19.7226 9.24232 22.3811C9.24232 24.8693 8.00253 25.5477 6.92579 25.5477C5.686 25.5477 4.60926 24.7078 4.60926 22.2846C4.60926 21.6387 4.64207 20.8628 4.67488 20.3154H0.0100021V20.3095ZM20.3577 25.6727V19.1457L21.7934 17.3359L26.1003 25.6717H30.7662L24.6637 13.7824L28.8722 8.54814H28.223L20.3607 18.3058V-0.0141602H15.9563V25.6727H20.3607H20.3577ZM35.605 5.9635C35.9298 5.96567 36.2516 5.90339 36.5516 5.78034C36.8516 5.65729 37.1237 5.47596 37.3517 5.24706C37.5798 5.01817 37.7593 4.74634 37.8795 4.44762C37.9997 4.1489 38.0583 3.82936 38.0518 3.50785C38.0487 3.02525 37.9011 2.55442 37.6277 2.15491C37.3543 1.7554 36.9675 1.44515 36.516 1.26339C36.0646 1.08164 35.5689 1.03656 35.0916 1.13384C34.6143 1.23112 34.1768 1.4664 33.8346 1.80991C33.4923 2.15343 33.2606 2.58976 33.1687 3.06371C33.0768 3.53766 33.129 4.02795 33.3185 4.47256C33.508 4.91717 33.8264 5.29613 34.2334 5.56152C34.6404 5.82691 35.1178 5.9668 35.605 5.9635ZM37.7923 25.6727V8.54814H33.3879V25.6727H37.7923ZM50.8166 25.6727H55.221V13.4634C55.2578 12.7774 55.1507 12.0912 54.9064 11.4483C54.6621 10.8053 54.2859 10.2194 53.8015 9.72765C53.3172 9.23586 52.7352 8.8488 52.0922 8.59088C51.4493 8.33296 50.7594 8.20979 50.066 8.22912C49.0764 8.20142 48.1014 8.4704 47.2689 9.00082C46.4363 9.53125 45.7849 10.2984 45.4001 11.2017V8.54814H40.9957V25.6727H45.4001V13.0075C45.4001 11.1663 46.5753 9.80846 48.1412 9.80846C49.7071 9.80846 50.8166 11.1653 50.8166 13.0075V25.6727ZM68.2155 25.6727H72.6198V13.4634C72.6567 12.7774 72.5495 12.0912 72.3052 11.4483C72.0609 10.8053 71.6847 10.2194 71.2004 9.72765C70.716 9.23586 70.134 8.8488 69.4911 8.59088C68.8482 8.33296 68.1582 8.20979 67.4648 8.22912C66.4752 8.20142 65.5003 8.4704 64.6677 9.00082C63.8351 9.53125 63.1838 10.2984 62.7989 11.2017V8.54814H58.3946V25.6727H62.7989V13.0075C62.7989 11.1663 63.9741 9.80846 65.54 9.80846C67.1059 9.80846 68.2155 11.1653 68.2155 13.0075V25.6727ZM80.3449 16.8633C81.4647 16.8666 82.5603 16.5408 83.493 15.9271C84.4257 15.3134 85.1535 14.4394 85.5844 13.4158C86.0152 12.3922 86.1297 11.265 85.9133 10.1769C85.6969 9.08883 85.1593 8.08882 84.3687 7.30348C83.5781 6.51814 82.5699 5.98279 81.4719 5.76522C80.3739 5.54765 79.2354 5.65764 78.2005 6.08125C77.1656 6.50487 76.281 7.22307 75.6585 8.14492C75.036 9.06677 74.7037 10.1508 74.7037 11.2598C74.6815 12.0004 74.8122 12.7376 75.0878 13.4264C75.3633 14.1152 75.7779 14.7411 76.3062 15.2657C76.8345 15.7903 77.4654 16.2025 78.1602 16.4772C78.855 16.752 79.5991 16.8833 80.3469 16.8633H80.3449ZM80.3449 16.6595C79.2668 16.6593 78.213 16.3425 77.3166 15.7492C76.4203 15.1558 75.7217 14.3126 75.3093 13.3261C74.8969 12.3396 74.789 11.2541 74.9995 10.2069C75.2099 9.15976 75.7292 8.1979 76.4916 7.44298C77.254 6.68805 78.2254 6.17398 79.2828 5.96575C80.3402 5.75752 81.4362 5.86449 82.4323 6.27313C83.4283 6.68177 84.2796 7.37374 84.8786 8.26153C85.4775 9.14932 85.7972 10.1931 85.7972 11.2608C85.8203 11.9758 85.6951 12.6879 85.4294 13.3531C85.1636 14.0183 84.763 14.6225 84.2522 15.1284C83.7414 15.6342 83.1313 16.031 82.4597 16.2942C81.788 16.5573 81.0689 16.6813 80.3469 16.6585L80.3449 16.6595ZM77.6983 14.9649H79.6798V11.3218H79.9492L81.5499 14.9649H83.6736L81.8512 11.182C82.2345 11.0759 82.5734 10.8511 82.8185 10.5405C83.0635 10.23 83.2019 9.84994 83.2133 9.45596C83.1928 9.18016 83.1166 8.91125 82.9891 8.66523C82.8616 8.4192 82.6854 8.20109 82.471 8.02389C82.2567 7.84668 82.0085 7.71399 81.7413 7.63371C81.4741 7.55344 81.1933 7.52722 80.9156 7.55662H77.6983V14.9649ZM80.0437 7.76142C80.6939 7.76142 81.1691 8.49891 81.1691 9.45596C81.1691 10.413 80.6939 11.12 80.0437 11.12H79.6798V7.76044H80.0437V7.76142Z" fill="black"/>
</svg>
